#!OML:ASF H:\Terrain\Patient Classification 1\Walking\steve\steve.ASF
:FULLY-SPECIFIED
:DEGREES
106
root 8.00838 15.5301 -16.7057 8.42313 -8.70112 -9.21985
lowerback -1.00457 6.2204 8.6575
upperback -1.96083 8.29781 2.91417
thorax -0.696934 4.06092 -1.68181
lowerneck -8.25131 -1.1507 -0.201471
upperneck 14.2923 -1.54406 0.12167
head 5.6745 -0.749534 -0.0406381
rclavicle 4.84041e-014 5.56597e-015
rhumerus -16.0503 13.4134 -77.1103
rradius 47.8026
rwrist -7.96863
rhand -21.8487 -37.729
rfingers 7.12502
rthumb 4.55491 -67.66
lclavicle 4.84041e-014 5.56597e-015
lhumerus -60.5797 3.23985 70.417
lradius 21.3248
lwrist 2.37789
lhand -21.7555 -18.8708
lfingers 7.12502
lthumb 4.64485 11.0582
rfemur 7.99684 -3.67915 28.9589
rtibia 15.7393
rfoot -0.1837 29.9082
rtoes 22.2852
lfemur -44.1324 -1.18287 -3.31457
ltibia 22.2405
lfoot -25.1023 16.8254
ltoes -12.2613
107
root 8.03049 15.4897 -16.5165 8.42976 -9.41461 -9.24174
lowerback -0.897284 6.39119 8.55019
upperback -1.7794 8.52317 2.82694
thorax -0.548747 4.18357 -1.7044
lowerneck -9.12596 -1.19142 -0.0659725
upperneck 14.6276 -1.58611 -0.101353
head 5.92713 -0.777761 -0.143532
rclavicle 6.4928e-014 -2.8625e-014
rhumerus -15.3605 13.59 -76.973
rradius 47.8837
rwrist -8.23723
rhand -21.279 -36.4712
rfingers 7.12502
rthumb 5.10497 -66.3897
lclavicle 6.4928e-014 -2.8625e-014
lhumerus -60.7546 3.77325 69.645
lradius 20.9225
lwrist 1.78646
lhand -21.8921 -19.1098
lfingers 7.12502
lthumb 4.51297 10.8221
rfemur 9.2041 -3.15378 28.5964
rtibia 14.7807
rfoot 0.193489 29.9716
rtoes 20.8493
lfemur -44.3102 -2.13397 -2.07224
ltibia 21.7221
lfoot -26.5263 17.4926
ltoes -10.1317
108
root 8.04915 15.4503 -16.3288 8.39983 -10.0173 -9.26268
lowerback -0.776413 6.47661 8.31117
upperback -1.56694 8.63589 2.80274
thorax -0.414545 4.25182 -1.59815
lowerneck -9.48564 -1.11612 -0.176388
upperneck 14.3396 -1.48361 0.00956734
head 5.90022 -0.726177 -0.0837098
rclavicle 3.90115e-015 5.96354e-015
rhumerus -14.5883 13.8347 -76.7959
rradius 47.9057
rwrist -8.30894
rhand -20.087 -36.9005
rfingers 7.12502
rthumb 6.2558 -66.7882
lclavicle 3.90115e-015 5.96354e-015
lhumerus -60.8432 4.55822 68.7076
lradius 20.295
lwrist 1.06853
lhand -22.2995 -19.3064
lfingers 7.12502
lthumb 4.11953 10.6335
rfemur 10.3151 -3.03953 28.1347
rtibia 14.0548
rfoot 1.71479 30.2542
rtoes 19.719
lfemur -44.3677 -2.25655 -1.51342
ltibia 21.1406
lfoot -26.1846 18.5142
ltoes -10.7363
109
root 8.06549 15.4036 -16.1417 8.38556 -10.4823 -9.30904
lowerback -0.677254 6.54439 8.07905
upperback -1.50825 8.73407 2.78339
thorax -0.43032 4.30398 -1.50056
lowerneck -9.37333 -0.984081 -0.159232
upperneck 13.8564 -1.31749 0.0832127
head 5.72943 -0.640275 -0.0481038
rclavicle 3.01656e-014 -2.38542e-015
rhumerus -14.1968 13.9148 -76.7397
rradius 47.8431
rwrist -8.171
rhand -20.3948 -38.1231
rfingers 7.12502
rthumb 5.95869 -68.0193
lclavicle 3.01656e-014 -2.38542e-015
lhumerus -61.574 5.06857 67.8496
lradius 20.1508
lwrist 0.602729
lhand -22.5962 -19.2801
lfingers 7.12502
lthumb 3.83304 10.6652
rfemur 11.3507 -2.7613 27.8161
rtibia 13.466
rfoot 3.08466 30.1999
rtoes 19.396
lfemur -44.3404 -1.47769 -1.60248
ltibia 20.5626
lfoot -25.0192 18.6419
ltoes -11.8763
110
root 8.08536 15.3587 -15.9496 8.34394 -10.9624 -9.36645
lowerback -0.553086 6.65199 7.99539
upperback -1.39511 8.88255 2.70995
thorax -0.369942 4.38306 -1.53236
lowerneck -9.63881 -0.926065 -0.183299
upperneck 13.6688 -1.24481 0.151526
head 5.71656 -0.601369 -0.0179764
rclavicle -3.64024e-014 -2.90226e-014
rhumerus -13.8631 13.9198 -76.6727
rradius 47.8982
rwrist -8.21765
rhand -21.5104 -39.3173
rfingers 7.12502
rthumb 4.88151 -69.241
lclavicle -3.64024e-014 -2.90226e-014
lhumerus -62.3811 4.96137 67.742
lradius 20.6217
lwrist 1.01084
lhand -22.6224 -18.9234
lfingers 7.12502
lthumb 3.80776 11.0223
rfemur 12.3982 -2.35914 27.5298
rtibia 12.9439
rfoot 3.63957 30.0352
rtoes 21.5917
lfemur -44.1782 -1.29943 -1.23841
ltibia 20.0472
lfoot -25.2036 18.2323
ltoes -10.4671
111
root 8.1093 15.3205 -15.7493 8.35033 -11.5237 -9.38342
lowerback -0.429763 6.80711 8.01333
upperback -1.36888 9.09902 2.52683
thorax -0.360733 4.49124 -1.7319
lowerneck -9.66834 -0.953743 -0.153929
upperneck 13.4336 -1.29554 0.21319
head 5.64823 -0.620628 -0.00678816
rclavicle -1.3008e-014 -8.34896e-015
rhumerus -13.719 13.7822 -76.6718
rradius 47.9805
rwrist -7.88842
rhand -20.988 -39.5121
rfingers 7.12502
rthumb 5.38589 -69.4237
lclavicle -1.3008e-014 -8.34896e-015
lhumerus -62.9446 4.80306 67.4735
lradius 20.7208
lwrist 1.20745
lhand -22.2636 -18.9622
lfingers 7.12502
lthumb 4.15422 10.977
rfemur 13.412 -1.83334 27.1594
rtibia 12.484
rfoot 3.22567 30.0956
rtoes 19.2342
lfemur -44.0393 -1.1504 -0.934529
ltibia 19.6746
lfoot -24.611 18.5713
ltoes -11.273
112
root 8.13021 15.2827 -15.5457 8.52487 -12.0868 -9.35802
lowerback -0.426887 6.97305 7.85252
upperback -1.45312 9.32513 2.35488
thorax -0.426177 4.60135 -1.81978
lowerneck -9.52463 -0.951958 -0.0423489
upperneck 13.0539 -1.3084 0.208176
head 5.50425 -0.622947 -0.0256723
rclavicle -4.34344e-014 -5.96354e-015
rhumerus -13.7595 13.5549 -76.707
rradius 48.0043
rwrist -7.35314
rhand -19.1709 -38.4174
rfingers 7.12502
rthumb 7.1402 -68.277
lclavicle -4.34344e-014 -5.96354e-015
lhumerus -63.5088 5.0375 66.6752
lradius 20.5383
lwrist 0.801449
lhand -21.9705 -18.9923
lfingers 7.12502
lthumb 4.43729 10.9412
rfemur 14.2715 -1.15925 26.8092
rtibia 11.9967
rfoot 2.81131 30.0789
rtoes 16.2843
lfemur -44.2312 -0.864809 -0.814236
ltibia 19.4611
lfoot -22.2162 20.4728
ltoes -17.3855
